<svg width="16" height="18" viewBox="0 0 16 18" fill="none" xmlns="http://www.w3.org/2000/svg">
<path fill-rule="evenodd" clip-rule="evenodd" d="M7.79206 1.46535C6.23753 1.46535 4.74667 2.08288 3.64745 3.1821C2.54822 4.28133 1.93068 5.7722 1.93068 7.32673C1.93068 9.5966 3.40756 11.7992 5.02692 13.5085C5.82162 14.3473 6.61881 15.0341 7.21814 15.5113C7.4412 15.6889 7.63602 15.8369 7.79206 15.9522C7.94811 15.8369 8.14293 15.6889 8.36599 15.5113C8.96532 15.0341 9.76251 14.3473 10.5572 13.5085C12.1766 11.7992 13.6535 9.5966 13.6535 7.32673C13.6535 5.7722 13.0359 4.28133 11.9367 3.1821C10.8375 2.08288 9.3466 1.46535 7.79206 1.46535ZM7.79206 16.8515C7.38565 17.4611 7.38526 17.4608 7.38526 17.4608L7.38317 17.4594L7.37828 17.4562L7.36149 17.4448C7.34722 17.4351 7.32687 17.4212 7.30085 17.4032C7.24881 17.3671 7.17404 17.3146 7.07976 17.2465C6.89128 17.1104 6.62445 16.9117 6.30534 16.6576C5.66829 16.1503 4.81696 15.4175 3.96315 14.5163C2.28549 12.7454 0.465332 10.1856 0.465332 7.32673C0.465332 5.38356 1.23726 3.52 2.61129 2.14597C3.98532 0.771938 5.84889 0 7.79206 0C9.73524 0 11.5988 0.771938 12.9729 2.14597C14.3469 3.52 15.1188 5.38356 15.1188 7.32673C15.1188 10.1856 13.2986 12.7454 11.621 14.5163C10.7672 15.4175 9.91584 16.1503 9.27879 16.6576C8.95968 16.9117 8.69286 17.1104 8.50438 17.2465C8.4101 17.3146 8.33532 17.3671 8.28328 17.4032C8.25726 17.4212 8.23692 17.4351 8.22265 17.4448L8.20586 17.4562L8.20097 17.4594L8.19942 17.4605C8.19942 17.4605 8.19848 17.4611 7.79206 16.8515ZM7.79206 16.8515L8.19848 17.4611C7.95238 17.6252 7.63136 17.6249 7.38526 17.4608L7.79206 16.8515Z" fill="white"/>
<path fill-rule="evenodd" clip-rule="evenodd" d="M7.79206 5.86139C6.98278 5.86139 6.32672 6.51744 6.32672 7.32673C6.32672 8.13602 6.98278 8.79208 7.79206 8.79208C8.60135 8.79208 9.25741 8.13602 9.25741 7.32673C9.25741 6.51744 8.60135 5.86139 7.79206 5.86139ZM4.86137 7.32673C4.86137 5.70816 6.17349 4.39604 7.79206 4.39604C9.41064 4.39604 10.7228 5.70816 10.7228 7.32673C10.7228 8.94531 9.41064 10.2574 7.79206 10.2574C6.17349 10.2574 4.86137 8.94531 4.86137 7.32673Z" fill="white"/>
</svg>
