<svg width="17" height="14" viewBox="0 0 17 14" fill="none" xmlns="http://www.w3.org/2000/svg">
<path fill-rule="evenodd" clip-rule="evenodd" d="M2.19808 1.46535C1.79678 1.46535 1.46541 1.79672 1.46541 2.19802V10.9901C1.46541 11.3914 1.79678 11.7228 2.19808 11.7228H13.9209C14.3221 11.7228 14.6535 11.3914 14.6535 10.9901V2.19802C14.6535 1.79672 14.3221 1.46535 13.9209 1.46535H2.19808ZM5.99446e-05 2.19802C5.99446e-05 0.987435 0.987495 0 2.19808 0H13.9209C15.1314 0 16.1189 0.987435 16.1189 2.19802V10.9901C16.1189 12.2007 15.1314 13.1881 13.9209 13.1881H2.19808C0.987495 13.1881 5.99446e-05 12.2007 5.99446e-05 10.9901V2.19802Z" fill="white"/>
<path fill-rule="evenodd" clip-rule="evenodd" d="M0.132506 1.77784C0.364554 1.44634 0.821403 1.36576 1.1529 1.5978L8.05947 6.4324L14.966 1.5978C15.2975 1.36576 15.7544 1.44634 15.9864 1.77784C16.2185 2.10934 16.1379 2.56619 15.8064 2.79824L8.47963 7.92695C8.22736 8.10354 7.89158 8.10354 7.63931 7.92695L0.312577 2.79824C-0.0189201 2.56619 -0.0995423 2.10934 0.132506 1.77784Z" fill="white"/>
</svg>
