<svg width="17" height="17" viewBox="0 0 17 17" fill="none" xmlns="http://www.w3.org/2000/svg">
<path d="M13.8475 16.8515C13.7743 16.8515 13.701 16.8515 13.6277 16.8515C11.2832 16.5584 8.93861 15.7525 6.9604 14.5069C5.12871 13.3346 3.51683 11.7228 2.34455 9.89109C1.02574 7.91287 0.219802 5.56829 0 3.22374C0 2.6376 0.146532 2.05145 0.512869 1.61185C0.879206 1.17224 1.39208 0.87919 1.97822 0.805923C2.05148 0.805923 2.12475 0.805923 2.19802 0.805923H4.39604C5.49505 0.805923 6.44753 1.61185 6.59406 2.71086C6.66733 3.37026 6.81385 4.02969 7.03366 4.61583C7.32673 5.42177 7.10693 6.30099 6.52079 6.9604L6.00792 7.47323C6.88713 8.79204 7.98614 9.96435 9.37822 10.8436L9.89109 10.3307C10.4772 9.74454 11.4297 9.52472 12.2356 9.81779C12.8218 10.0376 13.4812 10.1842 14.1406 10.2574C15.2396 10.404 16.0455 11.3564 16.0455 12.4554V14.6535C16.0455 15.2396 15.8257 15.8257 15.3861 16.1921C14.9465 16.5584 14.4337 16.8515 13.8475 16.8515ZM4.39604 2.27127H2.19802C1.97822 2.27127 1.75841 2.41782 1.61188 2.56436C1.53861 2.71089 1.46535 2.85739 1.46535 3.07719C1.68515 5.20194 2.41782 7.25344 3.59009 9.08512C4.6891 10.7703 6.08118 12.2356 7.76633 13.2614C9.59801 14.4336 11.6495 15.1663 13.7743 15.3861C14.0673 15.3861 14.2139 15.3128 14.3604 15.1663C14.5069 15.0198 14.5802 14.8733 14.5802 14.6535V12.4554C14.5802 12.0891 14.2871 11.796 13.9208 11.7228C13.1881 11.6495 12.4554 11.4297 11.7228 11.1366C11.4297 11.0633 11.1366 11.0633 10.9168 11.2831L9.96435 12.2356C9.74455 12.4554 9.37821 12.5287 9.08514 12.3822C7.10693 11.2831 5.49505 9.67129 4.39604 7.69307C4.32277 7.4 4.39604 7.03365 4.61584 6.81385L5.56831 5.86139C5.71484 5.71485 5.78812 5.34851 5.71485 5.12871C5.42178 4.39604 5.27525 3.66337 5.12871 2.93069C5.12871 2.56436 4.76238 2.27127 4.39604 2.27127ZM13.1148 7.39998C12.7485 7.39998 12.4554 7.18019 12.3822 6.81385C12.1624 5.64157 11.2099 4.76236 10.0376 4.46929C9.67129 4.39602 9.37821 4.02968 9.45148 3.59007C9.52475 3.22374 9.89108 2.93068 10.3307 3.00394C12.0891 3.37028 13.4812 4.6891 13.7743 6.44752C13.8475 6.81385 13.6277 7.25346 13.1881 7.32673C13.1881 7.32673 13.1881 7.39998 13.1148 7.39998ZM16.0455 7.32673C15.6792 7.32673 15.3861 7.03365 15.3129 6.66731C15.0198 3.95642 12.8951 1.83168 10.1109 1.46535C9.74456 1.39208 9.45148 1.02572 9.45148 0.659379C9.45148 0.293042 9.89109 0 10.2574 0C13.701 0.366337 16.3386 3.00395 16.705 6.44752C16.7782 6.81385 16.4851 7.18017 16.0455 7.25344C16.1188 7.32671 16.0455 7.32673 16.0455 7.32673Z" fill="white"/>
</svg>
